# xmcd
#
# Track frame offsets: 
#        150
#        15268
#        30625
#        44678
#        60068
#        72355
#        83843
#        99585
#        110988
#        125025
#        137438
#        148893
#        169330
#        181328
#        194258
#        206375
#        219103
#        233768
#        248410
#        261618
#        277048
#        289780
#
# Disc length: 4039 seconds
#
# Revision: 0
# Processed by: cddbd v1.5.2PL0 Copyright (c) Steve Scherf et al.
# Submitted via: ExactAudioCopy v1.0b3
#
DISCID=460fc516
DTITLE=John MacNally - Then Sings My Soul (1988)
DYEAR=1988
DGENRE=Adult Contemporary
TTITLE0=My Tribute
TTITLE1=Softly And Tenderly
TTITLE2=Abide With Me
TTITLE3=Peace In The Valley
TTITLE4=Old Rugged Cross
TTITLE5=The Lord's Prayer
TTITLE6=I Believe
TTITLE7=Rock Of Ages
TTITLE8=Balm In Gilead
TTITLE9=Amazing Grace
TTITLE10=Nearer My God To Thee
TTITLE11=How Great Thou Art
TTITLE12=Song Of Joy
TTITLE13=A Man Called Peter
TTITLE14=Sing
TTITLE15=Don't Let Life Get You Down
TTITLE16=At The End Of The Day
TTITLE17=Too Ra Loo Ra Loo Ra
TTITLE18=Forty Shades Of Green
TTITLE19=Molly Malone
TTITLE20=A Little Bit Of Heaven
TTITLE21=How Can You Buy Killarney
EXTD=
EXTT0=
EXTT1=
EXTT2=
EXTT3=
EXTT4=
EXTT5=
EXTT6=
EXTT7=
EXTT8=
EXTT9=
EXTT10=
EXTT11=
EXTT12=
EXTT13=
EXTT14=
EXTT15=
EXTT16=
EXTT17=
EXTT18=
EXTT19=
EXTT20=
EXTT21=
PLAYORDER=
